<?xml version="1.0" encoding="UTF-8" standalone="no"?>
<!-- Created with Inkscape (http://www.inkscape.org/) -->

<svg
   xmlns:dc="http://purl.org/dc/elements/1.1/"
   xmlns:cc="http://creativecommons.org/ns#"
   xmlns:rdf="http://www.w3.org/1999/02/22-rdf-syntax-ns#"
   xmlns:svg="http://www.w3.org/2000/svg"
   xmlns="http://www.w3.org/2000/svg"
   xmlns:sodipodi="http://sodipodi.sourceforge.net/DTD/sodipodi-0.dtd"
   xmlns:inkscape="http://www.inkscape.org/namespaces/inkscape"
   width="381mm"
   height="63.144066mm"
   viewBox="0 0 381 63.144066"
   version="1.1"
   id="svg8"
   inkscape:version="0.92.3 (2405546, 2018-03-11)"
   sodipodi:docname="head.svg">
  <defs
     id="defs2" />
  <sodipodi:namedview
     id="base"
     pagecolor="#ffffff"
     bordercolor="#666666"
     borderopacity="1.0"
     inkscape:pageopacity="0.0"
     inkscape:pageshadow="2"
     inkscape:zoom="0.49497475"
     inkscape:cx="634.82343"
     inkscape:cy="-10.341872"
     inkscape:document-units="mm"
     inkscape:current-layer="layer1"
     showgrid="false"
     inkscape:window-width="1366"
     inkscape:window-height="705"
     inkscape:window-x="-8"
     inkscape:window-y="-8"
     inkscape:window-maximized="1" />
  <metadata
     id="metadata5">
    <rdf:RDF>
      <cc:Work
         rdf:about="">
        <dc:format>image/svg+xml</dc:format>
        <dc:type
           rdf:resource="http://purl.org/dc/dcmitype/StillImage" />
        <dc:title></dc:title>
      </cc:Work>
    </rdf:RDF>
  </metadata>
  <g
     inkscape:label="Layer 1"
     inkscape:groupmode="layer"
     id="layer1"
     transform="translate(207.13095,-57.985361)">
    <path
       id="path815"
       d="m -207.13095,67.075332 15.875,4.233333 c 15.875,4.233333 47.625,12.7 79.375,15.531042 31.749998,2.725208 63.499998,0.07938 95.249998,7.037916 31.75,7.064377 63.5,23.997707 95.25,26.828747 31.750002,2.72521 63.500002,-8.38729 79.375002,-14.12875 l 15.875,-5.63562 V 58.608665 h -15.875 c -15.875,0 -47.625,0 -79.375002,0 -31.75,0 -63.5,0 -95.25,0 -31.75,0 -63.5,0 -95.249998,0 -31.75,0 -63.5,0 -79.375,0 h -15.875 z"
       inkscape:connector-curvature="0"
       style="fill:#00cba9;fill-opacity:1;stroke-width:0.26458332" />
    <path
       style="fill:none;stroke:#e5f1f5;stroke-width:0.26458332px;stroke-linecap:butt;stroke-linejoin:miter;stroke-opacity:1"
       d="M 92.982141,120.10714 C 54.205306,82.728887 -79.804478,70.957345 -113.39286,59.252974"
       id="path826"
       inkscape:connector-curvature="0"
       sodipodi:nodetypes="cc" />
    <path
       style="fill:none;stroke:#efefef;stroke-width:0.26458332px;stroke-linecap:butt;stroke-linejoin:miter;stroke-opacity:1"
       d="M 92.982139,120.10714 C 59.961832,105.35287 -37.988753,97.149249 21.544642,58.497022"
       id="path828"
       inkscape:connector-curvature="0"
       sodipodi:nodetypes="cc" />
    <path
       sodipodi:nodetypes="cc"
       inkscape:connector-curvature="0"
       id="path830"
       d="M 133.04762,113.30357 C 102.42043,98.634514 292.44332,94.016027 21.544642,58.497022"
       style="fill:none;stroke:#efefef;stroke-width:0.26458332px;stroke-linecap:butt;stroke-linejoin:miter;stroke-opacity:1" />
    <path
       style="fill:none;stroke:#ede7e7;stroke-width:0.26458332px;stroke-linecap:butt;stroke-linejoin:miter;stroke-opacity:1"
       d="M 113.85682,118.99849 C 130.01073,98.686007 148.87144,78.373525 134.70384,58.061042"
       id="path832"
       inkscape:connector-curvature="0"
       sodipodi:nodetypes="cc" />
  </g>
</svg>
